# AST/ASF file generated using VICON BodyLanguage
# -----------------------------------------------
:version 1.10
:name VICON
:units
  mass 1.0
  length 0.45
  angle deg
:documentation
   .ast/.asf automatically generated from VICON data using
   VICON BodyBuilder and BodyLanguage model FoxedUp or BRILLIANT.MOD
:root
   order TX TY TZ RX RY RZ
   axis XYZ
   position 0 0 0  
   orientation 0 0 0 
:bonedata
  begin
     id 1 
     name lhipjoint
     direction 0.566809 -0.746272 0.349008 
     length 2.40479 
     axis 0 0 0  XYZ
  end
  begin
     id 2 
     name lfemur
     direction 0.34202 -0.939693 0  
     length 7.1578  
     axis 0 0 20  XYZ
    dof rx ry rz
    limits (-160.0 20.0)
           (-70.0 70.0)
           (-60.0 70.0)
  end
  begin
     id 3 
     name ltibia
     direction 0.34202 -0.939693 0   
     length 7.49137   
     axis 0 0 20   XYZ
    dof rx
    limits (-10.0 170.0)
  end
  begin
     id 4 
     name lfoot
     direction 0.0665746 -0.182912 0.980873   
     length 2.36784   
     axis -90 7.62852e-016 20   XYZ
    dof rx rz
    limits (-45.0 90.0)
           (-70.0 20.0)
  end
  begin
     id 5 
     name ltoes
     direction 1.53601e-011 -4.22058e-011 1   
     length 1.18966   
     axis -90 7.62852e-016 20   XYZ
    dof rx
    limits (-90.0 20.0)
  end
  begin
     id 6 
     name rhipjoint
     direction -0.550236 -0.756381 0.353735   
     length 2.37265  
     axis 0 0 0  XYZ 
  end
  begin
     id 7 
     name rfemur
     direction -0.34202 -0.939693 0   
     length 7.43386   
     axis 0 0 -20   XYZ
    dof rx ry rz
    limits (-160.0 20.0)
           (-70.0 70.0)
           (-70.0 60.0)
  end
  begin
     id 8 
     name rtibia
     direction -0.34202 -0.939693 0   
     length 7.50908   
     axis 0 0 -20   XYZ
    dof rx
    limits (-10.0 170.0)
 end
 begin
     id 9 
     name rfoot
     direction -0.0683029 -0.187661 0.979856   
     length 2.41173  
     axis -90 -7.62852e-016 -20   XYZ
    dof rx rz
    limits (-45.0 90.0)
           (-20.0 70.0)
  end
  begin
     id 10 
     name rtoes
     direction -1.53528e-011 -4.21968e-011 1   
     length 1.21082   
     axis -90 -7.62852e-016 -20   XYZ
    dof rx
    limits (-90.0 20.0)
  end
  begin
     id 11 
     name lowerback
     direction 0.013823 0.995423 -0.0945635   
     length 2.04495   
     axis 0 0 0   XYZ
    dof rx ry rz
    limits (-20.0 45.0)
           (-30.0 30.0)
           (-30.0 30.0)
  end
  begin
     id 12 
     name upperback
     direction 0.0276657 0.9994 -0.020853   
     length 2.05008   
     axis 0 0 0   XYZ
    dof rx ry rz
    limits (-20.0 45.0)
           (-30.0 30.0)
           (-30.0 30.0)
  end
  begin
     id 13 
     name thorax
     direction 0.019782 0.999531 0.0233827   
     length 2.06488   
     axis 0 0 0   XYZ
    dof rx ry rz
    limits (-20.0 45.0)
           (-30.0 30.0)
           (-30.0 30.0)
  end
  begin
     id 14 
     name lowerneck
     direction -0.0308541 0.994709 0.0979874   
     length 1.75553   
     axis 0 0 0   XYZ
    dof rx ry rz
    limits (-20.0 45.0)
           (-30.0 30.0)
           (-30.0 30.0)
  end
  begin
     id 15 
     name upperneck
     direction 0.0588398 0.995804 -0.0700903   
     length 1.76878   
     axis 0 0 0   XYZ
    dof rx ry rz
    limits (-20.0 45.0)
           (-30.0 30.0)
           (-30.0 30.0)
  end
  begin
     id 16
     name head
     direction 0.0209966 0.999159 -0.0352225  
     length 1.77193  
     axis 0 0 0   XYZ
    dof rx ry rz
    limits (-20.0 45.0)
           (-30.0 30.0)
           (-30.0 30.0)
  end
  begin
     id 17 
     name lclavicle
     direction 0.938182 0.335073 -0.0868338  
     length 3.58396  
     axis 0 0 0   XYZ
    dof ry rz
    limits (-20.0 10.0)
           (0.0 20.0)
  end
  begin
     id 18 
     name lhumerus
     direction 1 -4.48971e-011 -1.26313e-017   
     length 4.983   
     axis 180 -30 -90   XYZ
    dof rx ry rz
    limits (-60.0 90.0)
           (-90.0 90.0)
           (-90.0 90.0)
  end
  begin
     id 19
     name lradius
     direction 1 -4.48948e-011 -5.89033e-027   
     length 3.48356   
     axis 180 -30 -90   XYZ
    dof rx
    limits (-10.0 170.0)
  end
  begin
     id 20
     name lwrist
     direction 1 -4.48977e-011 -1.48983e-026   
     length 1.74178   
     axis 9.0955e-015 90 90   XYZ
    dof ry
    limits (-180.0 0.0)
 end
  begin
     id 21 
     name lhand
     direction 1 -4.49046e-011 -2.98066e-026   
     length 0.715259   
     axis 1.90115e-014 90 90   XYZ
    dof rx rz
    limits (-90.0 90.0)
           (-45.0 45.0)
  end
  begin
     id 22 
     name lfingers
     direction 1 -4.48907e-011 -5.95731e-026   
     length 0.576661   
     axis 3.80223e-014 90 90   XYZ
    dof rx
    limits (0.0 90.0)
  end
  begin
     id 23
     name lthumb
     direction 0.707107 -6.34963e-011 0.707107   
     length 0.827973   
     axis -90 45 -3.84942e-014   XYZ
    dof rx rz
    limits (-45.0 45.0)
           (-45.0 45.0)
  end
  begin
     id 24 
     name rclavicle
     direction -0.909637 0.398485 -0.11735   
     length 3.44819  
     axis 0 0 0   XYZ 
    dof ry rz
    limits (-10.0 20.0)
           (-20.0 0.0)
  end
  begin
     id 25 
     name rhumerus
     direction -1 -4.48978e-011 -1.09333e-027  
     length 5.2419   
     axis 180 30 90   XYZ
    dof rx ry rz
    limits (-90.0 60.0)
           (-90.0 90.0)
           (-90.0 90.0)
  end
  begin
     id 26 
     name rradius
     direction -1 -4.48953e-011 -7.61841e-027   
     length 3.44417   
     axis 180 30 90   XYZ
    dof rx
    limits (-10.0 170.0)
  end
  begin
     id 27 
     name rwrist
     direction -1 -4.48977e-011 -1.48983e-026   
     length 1.72209   
     axis 9.0955e-015 -90 -90   XYZ
    dof ry
    limits (-180.0 0.0)
  end
  begin
     id 28
     name rhand
     direction -1 -4.49027e-011 -2.98038e-026   
     length 0.622529   
     axis 1.90115e-014 -90 -90   XYZ
    dof rx rz
    limits (-90.0 90.0)
           (-45.0 45.0)
  end
  begin
     id 29
     name rfingers
     direction -1 -4.48838e-011 -5.95531e-026   
     length 0.501899   
     axis 3.80223e-014 -90 -90   XYZ
    dof rx
    limits (0.0 90.0)
  end
  begin
     id 30
     name rthumb
     direction -0.707107 -6.34937e-011 0.707107   
     length 0.720629   
     axis -90 -45 3.84942e-014   XYZ
    dof rx rz
    limits (-45.0 45.0)
           (-45.0 45.0)
  end
:hierarchy
  begin
    root lhipjoint rhipjoint lowerback
    lhipjoint lfemur
    lfemur ltibia
    ltibia lfoot
    lfoot ltoes
    rhipjoint rfemur
    rfemur rtibia
    rtibia rfoot
    rfoot rtoes
    lowerback upperback
    upperback thorax
    thorax lowerneck lclavicle rclavicle
    lowerneck upperneck
    upperneck head
    lclavicle lhumerus
    lhumerus lradius
    lradius lwrist
    lwrist lhand lthumb
    lhand lfingers
    rclavicle rhumerus
    rhumerus rradius
    rradius rwrist
    rwrist rhand rthumb
    rhand rfingers
  end

#!OML:ASF F:\VICON\USERDATA\Patient Classification 1\PLAYGROUND\JustinFriday\JustinFriday.ASF
:FULLY-SPECIFIED
:DEGREES
1
root 15.19 17.8785 17.1506 143.319 -81.8495 -141.532
lowerback 3.84463 2.10068 0.810891
upperback -0.343684 2.86983 1.80594
thorax -2.56006 1.42555 1.22852
lowerneck -8.88637 -2.13885 -4.03788
upperneck 10.9846 -2.77966 3.30253
head 4.85646 -1.34136 1.4905
rclavicle -4.54968e-014 -1.12313e-014
rhumerus -29.0923 -10.6896 -82.8163
rradius 22.6078
rwrist -8.90046
rhand -15.0485 -23.549
rfingers 7.12502
rthumb 11.118 -53.2345
lclavicle -4.54968e-014 -1.12313e-014
lhumerus -32.0135 6.83722 83.9625
lradius 27.1899
lwrist -0.127177
lhand -14.5025 -7.81789
lfingers 7.12502
lthumb 11.6446 21.8385
rfemur -7.98756 4.82193 24.2601
rtibia 30.1492
rfoot -16.6925 -9.8318
rtoes 5.11573
lfemur -6.75534 2.09921 -15.5438
ltibia 29.3626
lfoot -19.8497 3.06778
ltoes 8.1989
2
root 15.1916 17.8715 17.1543 142.792 -81.6908 -140.908
lowerback 3.76601 2.17968 1.02529
upperback -0.375468 2.98354 1.80481
thorax -2.53958 1.47908 1.10336
lowerneck -8.78719 -2.17401 -3.97397
upperneck 10.9065 -2.8411 3.32869
head 4.81745 -1.36813 1.4849
rclavicle 1.66358e-014 2.78299e-015
rhumerus -29.1068 -10.5226 -82.8738
rradius 22.74
rwrist -9.336
rhand -15.3264 -23.6044
rfingers 7.12502
rthumb 10.8499 -53.3041
lclavicle 1.66358e-014 2.78299e-015
lhumerus -31.9865 6.61451 84.0129
lradius 27.1403
lwrist -0.0783495
lhand -14.4222 -7.83964
lfingers 7.12502
lthumb 11.722 21.8124
rfemur -8.34476 2.56441 24.1487
rtibia 30.3597
rfoot -16.7005 -7.92116
rtoes 3.86515
lfemur -6.88228 1.94491 -15.402
ltibia 29.4309
lfoot -19.8281 3.13374
ltoes 9.3512
3
root 15.1957 17.8706 17.1526 144.003 -81.7381 -142.12
lowerback 3.77481 2.23025 0.761819
upperback -0.363621 3.03963 1.79283
thorax -2.54613 1.51113 1.23454
lowerneck -8.85727 -2.19518 -3.98216
upperneck 10.9886 -2.86265 3.28385
head 4.85487 -1.3813 1.47004
rclavicle -8.95152e-015 6.55989e-015
rhumerus -29.0028 -10.4899 -82.7927
rradius 22.7281
rwrist -9.56214
rhand -14.9829 -23.5922
rfingers 7.12502
rthumb 11.1813 -53.2743
lclavicle -8.95152e-015 6.55989e-015
lhumerus -31.9443 6.57384 84.0932
lradius 27.1368
lwrist -0.0579159
lhand -14.402 -7.8452
lfingers 7.12502
lthumb 11.7415 21.8057
rfemur -8.31527 4.14534 24.1489
rtibia 30.4272
rfoot -16.7872 -9.14329
rtoes 4.88209
lfemur -6.88981 2.12319 -15.5688
ltibia 29.4143
lfoot -19.8059 3.09064
ltoes 9.36867
4
root 15.2008 17.8725 17.1494 145.255 -81.7015 -143.397
lowerback 3.83739 2.2543 0.518171
upperback -0.369036 3.06265 1.803
thorax -2.60062 1.52635 1.37676
lowerneck -8.87478 -2.17408 -4.06918
upperneck 11.0508 -2.82472 3.2936
head 4.87698 -1.36583 1.48964
rclavicle -3.54147e-014 -7.7526e-015
rhumerus -29.0015 -10.4098 -82.7541
rradius 22.7826
rwrist -9.58981
rhand -15.3525 -23.352
rfingers 7.12502
rthumb 10.8247 -53.053
lclavicle -3.54147e-014 -7.7526e-015
lhumerus -31.9924 6.66869 84.1007
lradius 27.1858
lwrist -0.0378896
lhand -14.3885 -7.82562
lfingers 7.12502
lthumb 11.7545 21.8246
rfemur -8.34979 4.66343 24.071
rtibia 30.4863
rfoot -16.7952 -9.53123
rtoes 5.13203
lfemur -6.90326 2.36316 -15.6815
ltibia 29.4622
lfoot -19.7671 3.11252
ltoes 8.9918
5
root 15.2038 17.8705 17.1516 144.344 -81.5309 -142.591
lowerback 3.97559 2.22502 0.725648
upperback -0.354411 3.03497 1.83197
thorax -2.65334 1.509 1.28712
lowerneck -8.83268 -2.12583 -3.961
upperneck 11.0452 -2.76883 3.23332
head 4.86367 -1.33831 1.45761
rclavicle -4.49999e-014 -7.15625e-015
rhumerus -29.0582 -10.2719 -82.8938
rradius 22.8695
rwrist -9.43322
rhand -16.0459 -23.0982
rfingers 7.12502
rthumb 10.1559 -52.8331
lclavicle -4.49999e-014 -7.15625e-015
lhumerus -32.0222 6.89895 83.9423
lradius 27.1557
lwrist -0.231246
lhand -14.2464 -7.90209
lfingers 7.12502
lthumb 11.8915 21.7402
rfemur -8.26394 4.38926 24.2736
rtibia 30.4613
rfoot -16.6272 -9.59734
rtoes 3.02696
lfemur -6.80718 2.37558 -15.4715
ltibia 29.5173
lfoot -19.7076 3.20129
ltoes 8.7403
6
root 15.2035 17.8705 17.1548 143.594 -81.6169 -141.919
lowerback 4.02113 2.14065 0.744447
upperback -0.325594 2.92323 1.82276
thorax -2.64567 1.45285 1.27306
lowerneck -8.80866 -2.09486 -3.78947
upperneck 11.0337 -2.73723 3.12002
head 4.85101 -1.32309 1.39694
rclavicle 2.29845e-016 8.94531e-016
rhumerus -29.0113 -10.1577 -83.037
rradius 22.8743
rwrist -9.57113
rhand -15.7035 -23.2106
rfingers 7.12502
rthumb 10.4862 -52.929
lclavicle 2.29845e-016 8.94531e-016
lhumerus -32.0326 7.1269 83.7972
lradius 27.1415
lwrist -0.445166
lhand -14.1309 -7.96536
lfingers 7.12502
lthumb 12.0028 21.6705
rfemur -8.13899 3.97962 24.2832
rtibia 30.4136
rfoot -16.5024 -9.41329
rtoes 1.8259
lfemur -6.7976 2.19525 -15.4522
ltibia 29.6279
lfoot -19.6696 3.15365
ltoes 9.04065
